<?xml version="1.0" encoding="UTF-8"?>
<svg id="berry" xmlns="http://www.w3.org/2000/svg" viewBox="0 0 548 297">
  <defs>
    <style>
      .cls-1 {
        fill: #521ca0;
      }

      .cls-2 {
        fill: #6a37bc;
      }

      .cls-3 {
        fill: #fff;
      }

      .cls-4 {
        fill: #d650d6;
      }

      .cls-5 {
        fill: #c11cc6;
      }

      .cls-6 {
        fill: #ff7bf9;
      }

      .cls-7 {
        fill: #451296;
      }
       #berry:hover #left_berryleaf .cls-4 {
      fill: #521ca0;
    }
     #berry:hover #right_berryleaf .cls-2 {
      fill: #ff7bf9;
    }
    </style>
       <script>
    const berry = document.querySelector("#berry");

    function logId() {
	  console.log(this.id)
    }

    berry.addEventListener("click", logId);
    </script>
  </defs>
  <g id="leftberry">
    <circle class="cls-5" cx="136" cy="136" r="136"/>
    <circle class="cls-6" cx="143" cy="139" r="136"/>
    <circle class="cls-3" cx="54.15" cy="131.13" r="6"/>
    <circle class="cls-3" cx="64" cy="92" r="6"/>
    <circle class="cls-3" cx="39" cy="92" r="6"/>
    <circle class="cls-3" cx="33" cy="156" r="6"/>
    <circle class="cls-3" cx="65" cy="160" r="6"/>
    <circle class="cls-3" cx="54" cy="68" r="6"/>
    <circle class="cls-3" cx="85" cy="111" r="6"/>
    <circle class="cls-3" cx="86" cy="74" r="6"/>
    <circle class="cls-3" cx="21" cy="120" r="6"/>
  </g>
  <g id="rightberry">
    <circle class="cls-7" cx="412" cy="161" r="136"/>
    <circle class="cls-1" cx="406" cy="159" r="136"/>
    <circle class="cls-3" cx="367" cy="76" r="6"/>
    <circle class="cls-3" cx="331.22" cy="82.12" r="6"/>
    <circle class="cls-3" cx="400.21" cy="70.13" r="6"/>
    <circle class="cls-3" cx="364.23" cy="56.11" r="6"/>
    <circle class="cls-3" cx="375.23" cy="103.12" r="6"/>
    <circle class="cls-3" cx="314.22" cy="112.14" r="6"/>
    <circle class="cls-3" cx="352.22" cy="100.13" r="6"/>
  </g>
  <g id="left_berryleaf">
    <path class="cls-4" d="M269.54,23.62l-7.53,26.57c-.77,2.73,1.11,5.5,3.94,5.78l27.75,2.73c5.3.52,6.39,7.77,1.48,9.83l-25.71,10.78c-2.62,1.1-3.61,4.3-2.06,6.69l16.4,25.28c2.58,3.97-1.86,8.75-6.01,6.48l-26.44-14.46c-2.49-1.36-5.61-.14-6.51,2.56l-9.55,28.58c-1.5,4.49-8,4-8.82-.66l-5.18-29.69c-.49-2.8-3.39-4.48-6.06-3.5l-28.3,10.36c-4.45,1.63-8.12-3.76-4.98-7.31l19.98-22.56c1.88-2.13,1.38-5.44-1.04-6.92l-25.74-15.67c-4.04-2.46-2.12-8.69,2.61-8.45l30.09,1.56c2.84.15,5.12-2.31,4.76-5.13l-4.05-31.85c-.53-4.18,4.88-6.31,7.33-2.88l18.69,26.1c1.65,2.31,5,2.56,6.98.52l19.25-19.8c3.76-3.87,10.2-.15,8.73,5.04Z"/>
  </g>
  <g id="right_berryleaf">
    <path class="cls-2" d="M288.54,148.15l6.77,26.77c.7,2.76,3.72,4.21,6.3,3.04l25.39-11.51c4.85-2.2,9.42,3.54,6.2,7.78l-16.88,22.19c-1.72,2.26-.97,5.53,1.56,6.82l26.84,13.7c4.22,2.15,2.77,8.51-1.97,8.62l-30.13.7c-2.84.07-4.93,2.69-4.36,5.47l6.02,29.53c.95,4.64-4.93,7.47-7.97,3.84l-19.33-23.12c-1.82-2.18-5.17-2.18-7,0l-19.33,23.12c-3.04,3.63-8.91.8-7.97-3.84l6.02-29.53c.57-2.78-1.52-5.4-4.36-5.47l-30.13-.7c-4.73-.11-6.18-6.47-1.97-8.62l26.84-13.7c2.53-1.29,3.28-4.56,1.56-6.82l-19.43-25.55c-2.55-3.36,1.07-7.9,4.91-6.16l29.24,13.26c2.59,1.17,5.61-.28,6.3-3.04l6.77-26.77c1.32-5.23,8.75-5.23,10.08,0Z"/>
  </g>
</svg>