<?xml version="1.0" encoding="UTF-8"?>
<svg id="billyglass" xmlns="http://www.w3.org/2000/svg" viewBox="0 0 220.82 248.68">
  <defs>
    <style>
      .cls-1 {
        fill: #fff0d2;
      }

      .cls-2 {
        fill: #ffd400;
      }

      .cls-3 {
        fill: #ffc200;
      }
      #billyglass {
  transform: rotate(0deg);
  transition: transform 0.1s ease-in-out;
}

#billyglass:hover {
  transform: rotate(5deg);
  transform: translateY(-10px);
}
    </style>
    <script>
    const billyglass = document.querySelector("#billyglass");

    function logId() {
	  console.log(this.id)
    }

    billyglass.addEventListener("click", logId);
    </script>
  </defs>
  <path class="cls-1" d="M220.82,189.83v-87.29c-.83-23.99-47.57-17.38-47.57-17.38v13.86c13.85.03,33.15,2.24,33.68,14.2v68.08s.66,18.78-33.68,16.6v10.95c48.4,11.17,47.57-19.03,47.57-19.03Z"/>
  <rect id="glass" class="cls-3" x="19.5" y="46.98" width="155.74" height="201.7" rx="12" ry="12"/>
  <g id="glassrod">
    <rect class="cls-2" x="34.73" y="73.02" width="20.28" height="137.67"/>
    <rect class="cls-2" x="89.2" y="155.57" width="20.28" height="129.22" transform="translate(319.52 120.84) rotate(90)"/>
    <rect class="cls-2" x="70.32" y="73.02" width="20.28" height="137.67"/>
    <rect class="cls-2" x="107.89" y="73.02" width="20.28" height="137.67"/>
    <rect class="cls-2" x="143.67" y="73.02" width="20.28" height="137.67"/>
  </g>
  <path id="top" class="cls-1" d="M.39,124.96c-.87-1.43,0-70.47,0-70.47,0,0,3.4-46.3,48-34.04,0,0,22.47-40.51,63.32-7.49,0,0,21.79-14.3,34.38,11.91,0,0,25.11-11.96,34.17,12.3,0,0,8.1,25.87-23.59,28.2-3.44.25-6.69,1.99-8.49,4.94-1.07,1.75-1.75,4.04-1.41,6.99v17.49c0,4.91-2.07,9.67-5.9,12.75s-9.5,4.68-16.02-2.22c-2.45-2.59-3.79-6.04-3.79-9.61v-17.14c0-3-1.09-5.94-3.19-8.09-3.2-3.28-9.07-5.83-18.64,1.04-.99.71-2.07,1.26-3.21,1.67-4.31,1.54-14.8,4.4-25.93.88,0,0-11.49,26.04-45.45,16.34v28.39c0,2.87-.97,5.66-2.78,7.88-4.12,5.08-13.07,12.03-21.48-1.72Z"/>
</svg>