<?xml version="1.0" encoding="UTF-8"?>
<svg id="billyglass" xmlns="http://www.w3.org/2000/svg" viewBox="0 0 221.82 249.68">
  <defs>
    <style>
      .cls-1 {
        fill: none;
      }

      .cls-1, .cls-2, .cls-3 {
        stroke: #000;
        stroke-miterlimit: 10;
      }

      .cls-2 {
        fill: #fff;
      }

      .cls-4 {
        fill: #ffd400;
      }

      .cls-3 {
        fill: #ffc200;
      }
    </style>
  </defs>
  <g id="handle">
    <path class="cls-1" d="M173.75,85.66s46.75-6.62,47.57,17.38v87.29s.83,30.2-47.57,19.03v-123.69Z"/>
    <path class="cls-1" d="M159.85,100.17s46.75-5.16,47.57,13.55v68.08s.83,23.55-47.57,14.84v-96.48Z"/>
  </g>
  <rect id="glass" class="cls-3" x="20" y="47.48" width="155.74" height="201.7" rx="12" ry="12"/>
  <g id="glassrod">
    <rect class="cls-4" x="35.23" y="73.52" width="20.28" height="137.67"/>
    <rect class="cls-4" x="89.7" y="156.07" width="20.28" height="129.22" transform="translate(320.52 120.84) rotate(90)"/>
    <rect class="cls-4" x="70.82" y="73.52" width="20.28" height="137.67"/>
    <rect class="cls-4" x="108.39" y="73.52" width="20.28" height="137.67"/>
    <rect class="cls-4" x="144.17" y="73.52" width="20.28" height="137.67"/>
  </g>
  <path id="top" class="cls-2" d="M.89,125.46C.02,124.03.89,54.99.89,54.99c0,0,3.4-46.3,48-34.04,0,0,22.47-40.51,63.32-7.49,0,0,21.79-14.3,34.38,11.91,0,0,25.11-11.96,34.17,12.3,0,0,8.1,25.87-23.59,28.2-3.44.25-6.69,1.99-8.49,4.94-1.07,1.75-1.75,4.04-1.41,6.99v17.49c0,4.91-2.07,9.67-5.9,12.75s-9.5,4.68-16.02-2.22c-2.45-2.59-3.79-6.04-3.79-9.61v-17.14c0-3-1.09-5.94-3.19-8.09-3.2-3.28-9.07-5.83-18.64,1.04-.99.71-2.07,1.26-3.21,1.67-4.31,1.54-14.8,4.4-25.93.88,0,0-11.49,26.04-45.45,16.34v28.39c0,2.87-.97,5.66-2.78,7.88-4.12,5.08-13.07,12.03-21.48-1.72Z"/>
</svg>