<?xml version="1.0" encoding="UTF-8"?>
<svg id="mintleaves" xmlns="http://www.w3.org/2000/svg" viewBox="0 0 557.61 396.3">
  <defs>
    <style>
      .cls-1 {
        fill: none;
        stroke: #0e8e4e;
        stroke-miterlimit: 10;
        stroke-width: 4px;
      }
    </style>
  </defs>
  <g id="mintleaf_right">
    <path class="cls-1" d="M463.67,379.81s-127.2,37.76-181.43-86.93c0,0-19.83-61.66,9.36-97.26,1.97-2.41,5.39-3.13,8.09-1.59,4.67,2.66,11.63,8.23,15.49,18.97.18.51.94.35.89-.19-1.01-11.02-1.77-35.78,9.96-48.37,2.23-2.4,5.85-2.87,8.57-1.06,5.75,3.81,15.52,11.4,17.64,20.08,0,0-11.55-30.26.97-53.01,1.44-2.61,4.62-3.78,7.4-2.7,5.4,2.1,14.26,7.47,21.16,21.07.22.43.88.25.81-.23-1.3-9.52-4.42-40.44,8.79-46.44,0,0,8.75-5.02,25.47,14.19.68.78,1.96.16,1.74-.85-1.77-8.22-3.78-26.61,8.84-40.98,2.11-2.4,5.64-3.03,8.43-1.48,4.3,2.4,10.79,7.79,17.45,19.87.3.54,1.12.31,1.06-.3-.83-9.29-1.73-38.24,17.51-49.69,3.36-2,7.65-1.45,10.37,1.35,2.77,2.86,6.19,7.89,9.25,16.68.2.58,1,.65,1.27.09,2.99-6.06,15.15-28.01,34.79-28.38,2.43-.05,4.71,1.26,5.89,3.38,3.95,7.09,11.52,25.24.37,45.72-.32.59.11,1.29.77,1.27,7.93-.29,42.31.85,1.2,46.32-.74.82-.23,2.13.86,2.23,9.9.93,40.59,6.74-10.15,42.35-1,.7-.6,2.27.61,2.38,12.39,1.13,48.32,7.64-9.65,44.57-1.34.85-.73,2.93.86,2.9,15.54-.28,52.11,2.72-5.05,43.14-.72.51-.43,1.64.44,1.72,10.48.96,45.9,6.68-12.98,38.75-1.65.9-1.17,3.4.7,3.59,14.43,1.44,42.43,9.39-9.21,52.05"/>
    <line class="cls-1" x1="476.74" y1="133.21" x2="336.86" y2="387.9"/>
    <line class="cls-1" x1="388.41" y1="195.09" x2="414.47" y2="246.59"/>
    <line class="cls-1" x1="434.91" y1="148.92" x2="450.91" y2="179.69"/>
    <line class="cls-1" x1="341.33" y1="254.39" x2="374.22" y2="319.4"/>
    <line class="cls-1" x1="483.25" y1="176.53" x2="451.13" y2="179.15"/>
    <line class="cls-1" x1="462.58" y1="239.54" x2="416.56" y2="243.28"/>
    <line class="cls-1" x1="447.31" y1="314.7" x2="374.16" y2="320.65"/>
  </g>
  <g id="mintleaf_left">
    <path class="cls-1" d="M43.9,353.77s112.25,70.74,198.17-34.65c0,0,35.76-54.01,17.28-96.17-1.25-2.85-4.34-4.47-7.36-3.71-5.21,1.3-13.42,4.78-20.04,14.08-.31.44-1,.08-.8-.42,3.96-10.34,11.37-33.97,3.49-49.27-1.5-2.91-4.85-4.34-7.97-3.34-6.56,2.12-18.03,6.78-22.41,14.57,0,0,19.3-26.01,13.4-51.3-.68-2.9-3.43-4.88-6.39-4.6-5.77.56-15.75,3.34-26.07,14.57-.33.36-.91,0-.72-.44,3.82-8.82,15.19-37.74,4.09-47.09,0,0-7.06-7.2-28.36,6.77-.87.57-1.93-.37-1.45-1.29,3.92-7.43,10.84-24.6,2.57-41.84-1.38-2.88-4.61-4.45-7.72-3.7-4.78,1.15-12.5,4.58-22.17,14.42-.43.44-1.16,0-.94-.58,3.31-8.72,12.01-36.34-3.43-52.57-2.69-2.83-6.97-3.47-10.35-1.5-3.44,2.01-8.1,5.92-13.41,13.56-.35.51-1.13.35-1.25-.25-1.24-6.64-7.01-31.06-25.83-36.73-2.33-.7-4.87-.06-6.59,1.67-5.72,5.76-17.91,21.18-12.72,43.91.15.65-.45,1.21-1.09,1.01-7.56-2.42-40.96-10.62-13.68,44.27.49.99-.35,2.11-1.43,1.91-9.78-1.78-40.9-4.48-1.68,43.52.77.94-.04,2.34-1.23,2.12-12.23-2.26-48.59-5.71-2.76,45.52,1.06,1.18-.09,3.02-1.61,2.56-14.89-4.47-50.91-11.47-6.8,42.9.55.68-.03,1.69-.89,1.53-10.35-1.91-45.99-5.97,2.02,40.81,1.35,1.31.21,3.59-1.64,3.27-14.28-2.51-43.39-2.43-5.2,52.6"/>
    <line class="cls-1" x1="97.98" y1="112.82" x2="163.8" y2="395.84"/>
    <line class="cls-1" x1="166.29" y1="196.28" x2="127.28" y2="238.81"/>
    <line class="cls-1" x1="134.01" y1="139.26" x2="110.29" y2="164.55"/>
    <line class="cls-1" x1="195.59" y1="266.1" x2="146.35" y2="319.79"/>
    <line class="cls-1" x1="80.01" y1="152.77" x2="110.22" y2="163.97"/>
    <line class="cls-1" x1="82.87" y1="219.02" x2="126.16" y2="235.06"/>
    <line class="cls-1" x1="77.25" y1="295.51" x2="146.07" y2="321.01"/>
  </g>
</svg>