<?xml version="1.0" encoding="UTF-8"?>
<svg id="mintleaves" xmlns="http://www.w3.org/2000/svg" viewBox="0 0 529.42 418.99">
  <defs>
    <style>
      .cls-1 {
        fill: #088744;
      }

      .cls-2 {
        fill: #65ba2d;
      }
       #left_mintleaf {
    transition: all 0.7s ease;
    transform-origin: 25%;
  }
      #right_mintleaf {
    transition: all 0.7s ease;
    transform-origin: 75%;
  }

  #mintleaves:hover #left_mintleaf {
    transform: rotate(-360deg);
  }
   #mintleaves:hover #right_mintleaf {
    transform: rotate(360deg);
  }
    </style>
    <script>
    const mintleaves = document.querySelector("#mintleaves");

    function logId() {
	  console.log(this.id)
    }

    mintleaves.addEventListener("click", logId);
    </script>
  </defs>
  <g id="left_mintleaf">
    <path class="cls-1" d="M5.47,303.22c-15.8-35.54,6.42-30.07,18.45-27.95,1.85.33,3-1.95,1.65-3.26-48.04-46.8-12.37-42.73-2.02-40.82.86.16,1.44-.84.89-1.52-44.12-54.38-8.08-47.38,6.8-42.91,1.52.46,2.67-1.37,1.61-2.55-45.82-51.22-9.49-47.79,2.75-45.52,1.2.22,2.01-1.18,1.24-2.12-39.21-48-8.09-45.29,1.69-43.51,1.08.2,1.92-.92,1.43-1.91-27.29-54.9,6.13-46.7,13.68-44.28.63.2,1.23-.36,1.08-1.01-5.16-22.59,6.85-37.96,12.61-43.8,1.74-1.77,4.32-2.49,6.69-1.77,18.82,5.67,24.59,30.1,25.83,36.73.11.6.89.76,1.24.26,5.24-7.54,9.84-11.46,13.27-13.49s7.78-1.44,10.5,1.41c15.43,16.23,6.73,43.86,3.42,52.58-.22.57.5,1.02.93.58,9.68-9.85,17.4-13.28,22.19-14.43,3.14-.75,6.34.84,7.74,3.75,8.23,17.23,1.33,34.37-2.59,41.8-.48.91.58,1.86,1.44,1.29,21.3-13.98,28.37-6.77,28.37-6.77,11.1,9.35-.27,38.29-4.09,47.1-.19.44.38.8.71.45,10.32-11.24,20.31-14.02,26.08-14.58,2.99-.29,5.71,1.68,6.39,4.61,5.9,25.29-13.4,51.29-13.4,51.29,4.39-7.79,15.85-12.45,22.42-14.57,3.11-1,6.47.44,7.97,3.34,7.88,15.3.47,38.93-3.49,49.27-.19.51.49.86.81.42,6.63-9.3,14.84-12.77,20.05-14.08,2.97-.74,6.05.75,7.28,3.55,18.65,42.19-17.21,96.34-17.21,96.34-62.69,76.89-139.39,60.03-176.29,45.28-12.52-5-23.81-12.64-33.16-22.35h0c-10.36-10.76-18.89-23.18-24.95-36.82Z"/>
    <path class="cls-2" d="M200.52,243.98c-11.08,31.05-38.63,88.4-66.87,105.59,11.99-10.21,20.41-23.72,28.75-36.89,12.93-20.8,26.44-46.95,38.12-68.7h0Z"/>
    <path class="cls-2" d="M179.52,186.98c-11.08,31.05-38.63,88.4-66.87,105.59,11.99-10.21,20.41-23.72,28.75-36.89,12.93-20.8,26.44-46.95,38.12-68.7h0Z"/>
    <path class="cls-2" d="M148.29,147.98c-7.79,23.73-28.56,66.97-50.4,79.59,8.83-7.92,15.04-18.1,21.28-28.05,10.34-16.84,19.34-34.35,29.13-51.53h0Z"/>
    <path class="cls-2" d="M126.59,96.98c-5.57,18.79-21.49,52.03-39,61.59,8.77-8.57,14.48-19.38,20.73-29.78,6.15-10.57,11.9-21.31,18.27-31.8h0Z"/>
    <path class="cls-2" d="M112.79,41.98c-4.68,15.16-17.34,41.69-31.4,49.59,5.41-5.08,9.19-11.38,13.05-17.61,6.36-10.42,12.09-21.48,18.35-31.98h0Z"/>
    <path class="cls-2" d="M182.52,415.98c-36.36-13.5-57.73-81.32-67.73-116.2-21.82-79.73-32-162.28-38.12-244.56-1.21-18.3-2.26-36.61-2.64-54.95,3.84,36.47,8.06,72.84,12.79,109.14,9.4,65.25,34.95,279.8,95.7,306.57h0Z"/>
    <path class="cls-2" d="M40.05,297.16c30.95,20.95,60.79,43.91,94.29,60.69,2.28.99,4.57,1.99,6.86,3.04-32.77-7.98-76.47-40.49-101.16-63.74h0Z"/>
    <path class="cls-2" d="M31.78,247.91c14.16,9.06,27.92,18.6,42.06,27.62,14.1,9.03,28.17,18.01,43.63,24.61-2.05-.46-4.1-.98-6.16-1.52-14.15-4.44-27.19-11.79-39.63-19.73-14.11-9.22-27.65-19.36-39.89-30.98h0Z"/>
    <path class="cls-2" d="M36.71,191.14c14.97,9.27,29.39,19.19,44.27,28.53,8.97,5.51,17.85,10.97,27.55,15.25-1.73-.35-3.46-.76-5.19-1.19-23.23-7.16-49.16-25.74-66.63-42.59h0Z"/>
    <path class="cls-2" d="M39.9,124.3c17.16,13.2,32.82,28.3,51.45,39.46-17.96-5.69-39.37-25.06-51.45-39.46h0Z"/>
    <path class="cls-2" d="M36.98,64.23c15.32,8.93,29.32,19.8,45.28,27.6-15.43-2.81-34.29-16.56-45.28-27.6h0Z"/>
  </g>
  <g id="right_mintleaf">
    <path class="cls-1" d="M523.02,311.71c16.88-35.04-5.5-30.25-17.58-28.5-1.86.27-2.93-2.04-1.55-3.31,49.45-45.31,13.67-42.33,3.27-40.74-.86.13-1.42-.89-.85-1.55,45.77-53.01,9.53-47.11-5.48-43.1-1.53.41-2.63-1.45-1.53-2.6,47.37-49.79,10.95-47.47-1.35-45.59-1.21.19-1.97-1.24-1.17-2.16,40.67-46.77,9.48-45.02-.35-43.54-1.09.16-1.89-.98-1.38-1.95,28.96-54.04-4.7-46.86-12.32-44.67-.64.18-1.22-.4-1.05-1.04,5.85-22.42-5.68-38.15-11.26-44.17-1.68-1.82-4.24-2.62-6.64-1.98-18.98,5.09-25.5,29.33-26.94,35.92-.13.59-.91.73-1.24.22-5.01-7.7-9.48-11.75-12.85-13.89-3.33-2.11-7.74-1.68-10.54,1.09-15.92,15.75-8.07,43.64-5.03,52.45.2.58-.53,1-.95.55-9.38-10.14-16.99-13.81-21.74-15.1-3.11-.85-6.37.65-7.85,3.51-8.76,16.97-2.38,34.32,1.31,41.86.45.93-.64,1.84-1.48,1.24-20.87-14.62-28.15-7.64-28.15-7.64-11.38,9.01-.9,38.28,2.65,47.2.18.45-.41.79-.72.43-9.97-11.55-19.87-14.63-25.62-15.37-2.98-.38-5.76,1.5-6.53,4.41-6.67,25.1,11.82,51.67,11.82,51.67-4.15-7.92-15.46-12.93-21.96-15.25-3.08-1.1-6.48.24-8.06,3.1-8.35,15.05-1.66,38.9,1.98,49.35.18.51-.52.84-.82.39-6.34-9.5-14.44-13.22-19.61-14.68-2.95-.83-6.07.56-7.39,3.33-19.93,41.6,14.25,96.82,14.25,96.82,60.3,78.78,137.49,64.27,174.82,50.66,12.67-4.62,24.18-11.9,33.82-21.33h0c10.68-10.44,19.59-22.59,26.07-36.04Z"/>
    <path class="cls-2" d="M329.88,246.52c11.05,22.18,23.68,48.59,36,69.84,7.93,13.42,15.94,27.18,27.61,37.75-27.7-18.06-53.44-76.12-63.61-107.59h0Z"/>
    <path class="cls-2" d="M352.61,190.19c11.05,22.18,23.68,48.59,36,69.84,7.93,13.42,15.94,27.18,27.61,37.75-27.7-18.06-53.44-76.12-63.61-107.59h0Z"/>
    <path class="cls-2" d="M385.03,152.16c9.25,17.48,17.72,35.26,27.53,52.4,5.93,10.14,11.83,20.51,20.41,28.69-21.43-13.26-40.87-57.09-47.94-81.09h0Z"/>
    <path class="cls-2" d="M408.28,101.85c6.05,10.68,11.47,21.59,17.29,32.35,5.93,10.59,11.3,21.56,19.81,30.4-17.2-10.08-32.1-43.77-37.1-62.75h0Z"/>
    <path class="cls-2" d="M423.76,47.3c5.94,10.69,11.32,21.92,17.36,32.53,3.67,6.34,7.26,12.76,12.51,18-13.82-8.34-25.64-35.18-29.87-50.53h0Z"/>
    <path class="cls-2" d="M342.6,418.99c61.5-24.88,93.59-238.21,105.04-303.5,5.85-36.13,11.17-72.37,16.13-108.7-.95,18.32-2.56,36.59-4.32,54.84-8.64,82.05-21.34,164.26-45.59,243.28-11.05,34.53-34.51,101.71-71.25,114.07h0Z"/>
    <path class="cls-2" d="M488.65,304.58c-25.34,22.45-70.05,53.64-103.06,60.61,2.32-.99,4.64-1.92,6.95-2.83,34-15.75,64.53-37.78,96.11-57.78h0Z"/>
    <path class="cls-2" d="M498.42,255.61c-12.59,11.24-26.44,20.96-40.82,29.75-12.68,7.55-25.94,14.51-40.22,18.51-2.07.47-4.14.93-6.2,1.33,15.65-6.12,29.99-14.67,44.36-23.26,14.41-8.59,28.45-17.7,42.89-26.32h0Z"/>
    <path class="cls-2" d="M495.23,198.72c-17.97,16.31-44.43,34.08-67.9,40.53-1.75.37-3.49.73-5.23,1.03,9.83-3.98,18.87-9.17,28-14.4,15.16-8.88,29.88-18.35,45.13-27.16h0Z"/>
    <path class="cls-2" d="M494.09,131.81c-12.5,14.02-34.49,32.72-52.63,37.87,18.96-10.59,35.08-25.2,52.63-37.87h0Z"/>
    <path class="cls-2" d="M498.84,71.86c-11.32,10.69-30.57,23.86-46.1,26.2,16.19-7.31,30.52-17.74,46.1-26.2h0Z"/>
  </g>
</svg>