<?xml version="1.0" encoding="UTF-8"?>
<svg id="Layer_1" data-name="Layer 1" xmlns="http://www.w3.org/2000/svg" viewBox="0 0 471.26 470.12">
  <defs>
    <style>
      .cls-1 {
        fill: #129b18;
      }

      .cls-2 {
        fill: #d64f41;
      }

      .cls-3 {
        fill: #1c7a23;
      }

      .cls-4 {
        fill: #5b4004;
      }

      .cls-5 {
        fill: #d86e5d;
      }
      #peach:hover {
        transform: rotate(360deg);
        transition: transform 1s;
        transform-origin: center;
      }
    </style>
    <script>
    const peach = document.querySelector("#peach");

    function logId() {
	  console.log(this.id)
    }

    peach.addEventListener("click", logId);
    </script>
  </defs>
  <g id="peach">
    <path id="peachstem" class="cls-4" d="M246,30.6l2.38,48.1s-7.09-1.58-18.12-7.09l-4.6-49.81c-.81-8.32,3.47-16.45,10.99-20.1,4.46-2.17,9.93-2.74,15.95,1.09,1.94,1.23,3.05,3.44,2.87,5.73-.32,4.13-1.68,10.99-6.92,15.8-1.76,1.61-2.73,3.9-2.56,6.28Z"/>
    <g id="peach-2" data-name="peach">
      <path class="cls-2" d="M230.71,77.98S73.44,12.68,8.14,178.57c0,0-72.27,183.42,213.97,289.82,5.75,2.14,12.04,2.29,17.9.47,40.06-12.44,197.1-71.06,221.7-231.47,0,0,23.35-214.13-230.99-159.42Z"/>
      <path class="cls-5" d="M239.71,74.98S82.44,9.68,17.14,175.57c0,0-73.71,187.07,222.58,292.96,0,0,202.75-50,230.99-234.13,0,0,23.35-214.13-230.99-159.42Z"/>
      <path class="cls-2" d="M240.13,91.6c31.89,36.15,47.63,89.16,49.37,136.76,2.5,63.37-17.24,126.71-49.37,180.81,17.79-41.48,32.07-84.41,37.81-129.13,8.45-64.38-1.68-133.51-37.81-188.43h0Z"/>
    </g>
    <g id="right_peachleaf">
      <path class="cls-3" d="M398.23,14.37s-67.12,93.61-179.58,62.33c0,0,73.8-94.35,180.85-65.99"/>
      <path class="cls-1" d="M269.14,69.8s29.12-7.28,63.1-41.26"/>
    </g>
    <g id="right_peachleaf-2" data-name="right_peachleaf">
      <path class="cls-3" d="M66.46,14.86s110.34-33.06,180.23,60.43c0,0-116.08,29.57-183.47-58.31"/>
      <path class="cls-1" d="M144.06,39.74s25,16.63,73,18.86"/>
    </g>
  </g>
</svg>