<?xml version="1.0" encoding="UTF-8"?>
<svg id="toast" xmlns="http://www.w3.org/2000/svg" viewBox="0 0 354.36 354.95">
  <defs>
    <style>
      .cls-1 {
        fill: none;
        stroke: #603813;
        stroke-miterlimit: 10;
        stroke-width: 18px;
      }

      .cls-2 {
        fill: #664606;
      }

      .cls-3 {
        fill: #dbcba1;
      }
    </style>
  </defs>
  <path id="toast_out" class="cls-1" d="M9.08,299.59L42.33,68.82S-24.08,37.57,50.4,12.82c0,0,135.51-21.87,270.92,39.04,0,0,58.62,36.04-7.24,50.21l-34.09,236.56c-.69,4.8-5.92,8.02-11.67,7.19l-250.08-36.04c-5.75-.83-9.86-5.39-9.17-10.19Z"/>
  <g id="toast_in">
    <rect class="cls-3" x="35.95" y="43.58" width="257.96" height="277.05" rx="1" ry="1" transform="translate(27.66 -21.66) rotate(8.2)"/>
    <path class="cls-3" d="M52.23,65.48S-79.14.51,206.59,22.31c0,0,217.37,50.71,94.77,79.07-122.6,28.37-249.14-35.9-249.14-35.9Z"/>
  </g>
  <g id="toast_dot">
    <path class="cls-2" d="M76.49,111.62c3.86,0,3.87-6,0-6s-3.87,6,0,6h0Z"/>
    <path class="cls-2" d="M270.21,232.91c3.86,0,3.87-6,0-6s-3.87,6,0,6h0Z"/>
    <path class="cls-2" d="M63.31,203.09c3.86,0,3.87-6,0-6s-3.87,6,0,6h0Z"/>
    <path class="cls-2" d="M86.93,251.06c3.86,0,3.87-6,0-6s-3.87,6,0,6h0Z"/>
    <path class="cls-2" d="M176.67,263.99c3.86,0,3.87-6,0-6s-3.87,6,0,6h0Z"/>
    <path class="cls-2" d="M128.31,246.41c3.86,0,3.87-6,0-6s-3.87,6,0,6h0Z"/>
    <path class="cls-2" d="M249.49,147.16c3.86,0,3.87-6,0-6s-3.87,6,0,6h0Z"/>
    <path class="cls-2" d="M149.97,166.77c3.86,0,3.87-6,0-6s-3.87,6,0,6h0Z"/>
    <path class="cls-2" d="M232.33,195.62c3.86,0,3.87-6,0-6s-3.87,6,0,6h0Z"/>
  </g>
</svg>