<?xml version="1.0" encoding="UTF-8"?>
<svg id="wheat" xmlns="http://www.w3.org/2000/svg" viewBox="0 0 204.88 247.68">
  <defs>
    <style>
      .cls-1 {
        fill: #edc10a;
      }
      #wheat_left, #wheat_right {
        transition: transform 0.5s ease-in;
        transform-origin: center;
      }
      #wheat:hover #wheat_left {
      transform: translateY(50px) rotate(-90deg);
      }
      #wheat:hover #wheat_right {
      transform: translateY(50px) rotate(90deg);
      }
    </style>
     <script>
    const wheat = document.querySelector("#wheat");

    function logId() {
	  console.log(this.id)
    }

    wheat.addEventListener("click", logId);
    </script>

  </defs>
  <g id="wheat_left">
    <path class="cls-1" d="M30.57,43s-28.43,27.83,0,55.32c0,0,26.89-24.6,0-55.32Z"/>
    <path class="cls-1" d="M.1,83.51s-3.32,37.28,28.6,40.09c0,0,6.64-24-28.6-40.09Z"/>
    <path class="cls-1" d="M.1,122.06s-3.32,37.28,28.6,40.09c0,0,6.64-24-28.6-40.09Z"/>
    <path class="cls-1" d="M1.1,160.13s-3.32,37.28,28.6,40.09c0,0,6.64-24-28.6-40.09Z"/>
    <path class="cls-1" d="M30.23,122.32s2.81-29.11,30.64-37.79c0,0,1.79,39.83-30.64,39.06"/>
    <path class="cls-1" d="M30.23,161.39s2.81-29.11,30.64-37.79c0,0,1.79,39.83-30.64,39.06"/>
    <rect class="cls-1" x="27.4" y="199.09" width="6.14" height="48.6" rx="3.07" ry="3.07"/>
    <path class="cls-1" d="M30.23,199.42s2.81-29.11,30.64-37.79c0,0,1.79,39.83-30.64,39.06"/>
  </g>
  <g id="wheat_middle">
    <path class="cls-1" d="M102.57,0s-28.43,27.83,0,55.32c0,0,26.89-24.6,0-55.32Z"/>
    <path class="cls-1" d="M72.1,40.51s-3.32,37.28,28.6,40.09c0,0,6.64-24-28.6-40.09Z"/>
    <path class="cls-1" d="M72.1,79.06s-3.32,37.28,28.6,40.09c0,0,6.64-24-28.6-40.09Z"/>
    <path class="cls-1" d="M73.1,117.13s-3.32,37.28,28.6,40.09c0,0,6.64-24-28.6-40.09Z"/>
    <path class="cls-1" d="M102.23,79.32s2.81-29.11,30.64-37.79c0,0,1.79,39.83-30.64,39.06"/>
    <path class="cls-1" d="M102.23,118.39s2.81-29.11,30.64-37.79c0,0,1.79,39.83-30.64,39.06"/>
    <rect class="cls-1" x="99.4" y="156.09" width="6.14" height="48.6" rx="3.07" ry="3.07"/>
    <path class="cls-1" d="M102.23,156.42s2.81-29.11,30.64-37.79c0,0,1.79,39.83-30.64,39.06"/>
  </g>
  <g id="wheat_right">
    <path class="cls-1" d="M174.57,43s-28.43,27.83,0,55.32c0,0,26.89-24.6,0-55.32Z"/>
    <path class="cls-1" d="M144.1,83.51s-3.32,37.28,28.6,40.09c0,0,6.64-24-28.6-40.09Z"/>
    <path class="cls-1" d="M144.1,122.06s-3.32,37.28,28.6,40.09c0,0,6.64-24-28.6-40.09Z"/>
    <path class="cls-1" d="M145.1,160.13s-3.32,37.28,28.6,40.09c0,0,6.64-24-28.6-40.09Z"/>
    <path class="cls-1" d="M174.23,122.32s2.81-29.11,30.64-37.79c0,0,1.79,39.83-30.64,39.06"/>
    <path class="cls-1" d="M174.23,161.39s2.81-29.11,30.64-37.79c0,0,1.79,39.83-30.64,39.06"/>
    <rect class="cls-1" x="171.4" y="199.09" width="6.14" height="48.6" rx="3.07" ry="3.07"/>
    <path class="cls-1" d="M174.23,199.42s2.81-29.11,30.64-37.79c0,0,1.79,39.83-30.64,39.06"/>
  </g>
</svg>